<mxfile host="Electron" modified="2024-07-12T14:21:10.780Z" agent="Mozilla/5.0 (Windows NT 10.0; Win64; x64) AppleWebKit/537.36 (KHTML, like Gecko) draw.io/24.6.4 Chrome/124.0.6367.207 Electron/30.0.6 Safari/537.36" etag="9Hk1S9MC6TK4_m1kJSPk" version="24.6.4" type="device">
  <diagram name="Page-1" id="O1RqNY4qfk_EP-WXLdzK">
    <mxGraphModel dx="-3350" dy="-529" grid="1" gridSize="10" guides="1" tooltips="1" connect="1" arrows="1" fold="1" page="0" pageScale="1" pageWidth="850" pageHeight="1100" background="none" math="1" shadow="0">
      <root>
        <mxCell id="0" />
        <mxCell id="1" parent="0" />
        <mxCell id="KZuLyNVjr3yoUkcuaGbw-3" value="" style="edgeStyle=none;curved=1;rounded=0;orthogonalLoop=1;jettySize=auto;html=1;fontSize=12;startSize=8;endSize=8;" edge="1" parent="1" source="KZuLyNVjr3yoUkcuaGbw-1" target="KZuLyNVjr3yoUkcuaGbw-2">
          <mxGeometry relative="1" as="geometry" />
        </mxCell>
        <mxCell id="KZuLyNVjr3yoUkcuaGbw-4" value="email verification process begins" style="edgeLabel;html=1;align=center;verticalAlign=middle;resizable=0;points=[];fontSize=12;" vertex="1" connectable="0" parent="KZuLyNVjr3yoUkcuaGbw-3">
          <mxGeometry x="-0.3579" y="1" relative="1" as="geometry">
            <mxPoint x="-1" y="8" as="offset" />
          </mxGeometry>
        </mxCell>
        <mxCell id="KZuLyNVjr3yoUkcuaGbw-1" value="user clicks the token" style="rounded=1;whiteSpace=wrap;html=1;fillColor=#d5e8d4;strokeColor=#82b366;" vertex="1" parent="1">
          <mxGeometry x="4680" y="1440" width="160" height="40" as="geometry" />
        </mxCell>
        <mxCell id="KZuLyNVjr3yoUkcuaGbw-6" value="" style="edgeStyle=none;curved=1;rounded=0;orthogonalLoop=1;jettySize=auto;html=1;fontSize=12;startSize=8;endSize=8;" edge="1" parent="1" source="KZuLyNVjr3yoUkcuaGbw-2" target="KZuLyNVjr3yoUkcuaGbw-5">
          <mxGeometry relative="1" as="geometry" />
        </mxCell>
        <mxCell id="KZuLyNVjr3yoUkcuaGbw-2" value="verify token" style="rounded=1;whiteSpace=wrap;html=1;fillColor=none;" vertex="1" parent="1">
          <mxGeometry x="4680" y="1520" width="160" height="40" as="geometry" />
        </mxCell>
        <mxCell id="KZuLyNVjr3yoUkcuaGbw-9" value="" style="edgeStyle=none;curved=1;rounded=0;orthogonalLoop=1;jettySize=auto;html=1;fontSize=12;startSize=8;endSize=8;" edge="1" parent="1" source="KZuLyNVjr3yoUkcuaGbw-5" target="KZuLyNVjr3yoUkcuaGbw-8">
          <mxGeometry relative="1" as="geometry" />
        </mxCell>
        <mxCell id="KZuLyNVjr3yoUkcuaGbw-5" value="gather user, user-profile and email verification token" style="rounded=1;whiteSpace=wrap;html=1;fillColor=none;" vertex="1" parent="1">
          <mxGeometry x="4680" y="1600" width="160" height="40" as="geometry" />
        </mxCell>
        <mxCell id="KZuLyNVjr3yoUkcuaGbw-12" value="" style="edgeStyle=none;curved=1;rounded=0;orthogonalLoop=1;jettySize=auto;html=1;fontSize=12;startSize=8;endSize=8;" edge="1" parent="1" source="KZuLyNVjr3yoUkcuaGbw-8" target="KZuLyNVjr3yoUkcuaGbw-11">
          <mxGeometry relative="1" as="geometry" />
        </mxCell>
        <mxCell id="KZuLyNVjr3yoUkcuaGbw-8" value="update users&#39;s email verification status" style="rounded=1;whiteSpace=wrap;html=1;fillColor=none;" vertex="1" parent="1">
          <mxGeometry x="4680" y="1680" width="160" height="40" as="geometry" />
        </mxCell>
        <mxCell id="KZuLyNVjr3yoUkcuaGbw-11" value="update email verification token&#39;s status" style="rounded=1;whiteSpace=wrap;html=1;fillColor=none;" vertex="1" parent="1">
          <mxGeometry x="4680" y="1760" width="160" height="40" as="geometry" />
        </mxCell>
      </root>
    </mxGraphModel>
  </diagram>
</mxfile>
